# xmcd CD database file generated by OrangeCD 6.1
#
# Track frame offsets:
#	150
#	3727
#	31172
#	109315
#	136337
#	183457
#	202880
#	235620
#	246002
#	253952
#
# Disc length: 3433 seconds
#
# Revision: 1
# Processed by: cddbd v1.5.2PL0 Copyright (c) Steve Scherf et al.
# Submitted via: OrangeCD 6.1
#
DISCID=830d670a
DTITLE=Wu Xiao-ping - Qigong Massage Music
DYEAR=1994
DGENRE=New Age
TTITLE0=Beginning Music
TTITLE1=Section I
TTITLE2=Section II
TTITLE3=Section III
TTITLE4=Section IV
TTITLE5=Section V
TTITLE6=Section VI
TTITLE7=Section VII
TTITLE8=Section VIII
TTITLE9=Concluding Music
EXTD=
EXTT0=
EXTT1=
EXTT2=
EXTT3=
EXTT4=
EXTT5=
EXTT6=
EXTT7=
EXTT8=
EXTT9=
PLAYORDER=
